<?xml version="1.0" encoding="UTF-8" standalone="no"?>
<!DOCTYPE svg PUBLIC "-//W3C//DTD SVG 1.1//EN" "http://www.w3.org/Graphics/SVG/1.1/DTD/svg11.dtd">
<svg width="100%" height="100%" viewBox="0 0 2750 2481" version="1.1" xmlns="http://www.w3.org/2000/svg" xmlns:xlink="http://www.w3.org/1999/xlink" xml:space="preserve" xmlns:serif="http://www.serif.com/" style="fill-rule:evenodd;clip-rule:evenodd;stroke-linejoin:round;stroke-miterlimit:2;">
    <g transform="matrix(11.5055,10.1676,-11.9346,13.5049,1215.26,1308.02)">
        <g id="blob.svg">
            <g>
                <g>
                    <path d="M48.4,-65.6C62.8,-66 74.7,-52.8 76.5,-38.1C78.4,-23.4 70.1,-7.3 63.9,6.5C57.7,20.3 53.7,31.6 46.8,41.9C40,52.2 30.4,61.4 18.3,67.1C6.3,72.8 -8.2,74.9 -19.8,70.3C-31.4,65.6 -40.3,54 -46.5,42.6C-52.7,31.2 -56.2,19.9 -62.1,6.4C-68,-7.1 -76.3,-22.9 -72.8,-34.3C-69.3,-45.8 -54,-53 -39.9,-52.8C-25.8,-52.6 -12.9,-45 2,-48.1C17,-51.3 33.9,-65.2 48.4,-65.6Z" style="fill-rule:nonzero;"/>
                </g>
            </g>
        </g>
    </g>
</svg>
